# Blender 4.0.2
# www.blender.org
mtllib pot.mtl
o Cylinder
v 0.800000 -0.000000 0.000000
v 1.000000 0.000000 1.700000
v 0.565685 -0.565685 0.000000
v 0.707107 -0.707107 1.700000
v 0.000000 -0.800000 0.000000
v 0.000000 -1.000000 1.700000
v -0.565685 -0.565685 0.000000
v -0.707107 -0.707107 1.700000
v -0.800000 -0.000000 0.000000
v -1.000000 0.000000 1.700000
v -0.565685 0.565685 0.000000
v -0.707107 0.707107 1.700000
v 0.000000 0.800000 0.000000
v 0.000000 1.000000 1.700000
v 0.565685 0.565685 0.000000
v 0.707107 0.707107 1.700000
v 0.707107 -0.707107 1.900000
v 1.000000 0.000000 1.900000
v 0.000000 -1.000000 1.900000
v -0.707107 -0.707107 1.900000
v -1.000000 0.000000 1.900000
v -0.707107 0.707107 1.900000
v 0.000000 1.000000 1.900000
v 0.707107 0.707107 1.900000
v 0.777817 -0.777817 1.700000
v 1.100000 0.000000 1.700000
v 0.000000 -1.100000 1.700000
v -0.777817 -0.777817 1.700000
v -1.100000 0.000000 1.700000
v -0.777817 0.777817 1.700000
v 0.000000 1.100000 1.700000
v 0.777817 0.777817 1.700000
v 0.777817 -0.777817 1.900000
v 1.100000 0.000000 1.900000
v 0.000000 -1.100000 1.900000
v -0.777817 -0.777817 1.900000
v -1.100000 0.000000 1.900000
v -0.777817 0.777817 1.900000
v 0.000000 1.100000 1.900000
v 0.777817 0.777817 1.900000
v 0.707107 -0.707107 1.500000
v 1.000000 0.000000 1.500000
v 0.000000 -1.000000 1.500000
v -0.707107 -0.707107 1.500000
v -1.000000 0.000000 1.500000
v -0.707107 0.707107 1.500000
v 0.000000 1.000000 1.500000
v 0.707107 0.707107 1.500000
v -0.777817 0.777817 1.500000
v -1.100000 0.000000 1.500000
v 0.777817 0.777817 1.500000
v 0.000000 1.100000 1.500000
v 0.777817 -0.777817 1.500000
v 1.100000 0.000000 1.500000
v 0.000000 -1.100000 1.500000
v -0.777817 -0.777817 1.500000
v 0.636396 -0.636396 1.700000
v 0.900000 -0.000000 1.700000
v 0.000000 -0.900000 1.700000
v -0.636396 -0.636396 1.700000
v -0.900000 -0.000000 1.700000
v -0.636396 0.636396 1.700000
v 0.000000 0.900000 1.700000
v 0.636396 0.636396 1.700000
v 0.477297 -0.477297 0.100000
v 0.675000 0.000000 0.100000
v 0.000000 -0.675000 0.100000
v -0.477297 -0.477297 0.100000
v -0.675000 0.000000 0.100000
v -0.477297 0.477297 0.100000
v 0.000000 0.675000 0.100000
v 0.477297 0.477297 0.100000
vn 0.9185 -0.3804 -0.1081
vn 0.3804 -0.9185 -0.1081
vn -0.3804 -0.9185 -0.1081
vn -0.9185 -0.3804 -0.1081
vn -0.9185 0.3804 -0.1081
vn -0.3804 0.9185 -0.1081
vn -0.9239 0.3827 -0.0000
vn 0.3804 0.9185 -0.1081
vn 0.9185 0.3804 -0.1081
vn -0.0000 -0.0000 -1.0000
vn 0.8387 -0.3474 0.4194
vn -0.9239 -0.3827 -0.0000
vn 0.3827 0.9239 -0.0000
vn -0.0000 -0.0000 1.0000
vn -0.3827 0.9239 -0.0000
vn 0.3827 -0.9239 -0.0000
vn 0.9239 0.3827 -0.0000
vn 0.9239 -0.3827 -0.0000
vn -0.3827 -0.9239 -0.0000
vn -0.3795 0.9162 0.1288
vn 0.3474 0.8387 0.4194
vn -0.8387 0.3474 0.4194
vn -0.8387 -0.3474 0.4194
vn 0.3474 -0.8387 0.4194
vn 0.8387 0.3474 0.4194
vn -0.3474 0.8387 0.4194
vn -0.3474 -0.8387 0.4194
vn -0.3795 -0.9162 0.1288
vn 0.9162 -0.3795 0.1288
vn 0.3795 0.9162 0.1288
vn -0.9162 0.3795 0.1288
vn -0.9162 -0.3795 0.1288
vn 0.3795 -0.9162 0.1288
vn 0.9162 0.3795 0.1288
vt 0.699626 0.674504
vt 0.795254 0.674504
vt 0.795254 0.698411
vt 0.699626 0.698411
vt 0.795254 0.722318
vt 0.699626 0.722318
vt 0.795254 0.746225
vt 0.699626 0.746225
vt 0.795254 0.770132
vt 0.699626 0.770132
vt 0.795254 0.794039
vt 0.699626 0.794039
vt 0.795254 0.817946
vt 0.699626 0.817946
vt 0.795254 0.841853
vt 0.699626 0.841853
vt 0.795254 0.865761
vt 0.699626 0.865761
vt 0.880163 0.908331
vt 0.880163 0.873200
vt 0.855321 0.848358
vt 0.820190 0.848358
vt 0.795348 0.873200
vt 0.795348 0.908331
vt 0.820190 0.933173
vt 0.855321 0.933173
vt 0.795348 0.823422
vt 0.795348 0.788291
vt 0.799387 0.735658
vt 0.823045 0.759317
vt 0.821372 0.763355
vt 0.795348 0.737331
vt 0.799387 0.702201
vt 0.795348 0.700528
vt 0.929744 0.832475
vt 0.904548 0.831818
vt 0.906822 0.826028
vt 0.927221 0.826853
vt 0.823045 0.678542
vt 0.821372 0.674504
vt 0.947450 0.814860
vt 0.941602 0.812932
vt 0.932511 0.839120
vt 0.901731 0.838450
vt 0.946355 0.789605
vt 0.952910 0.786891
vt 0.954188 0.817371
vt 0.886909 0.813438
vt 0.880257 0.816220
vt 0.929623 0.770485
vt 0.904669 0.770067
vt 0.901849 0.763449
vt 0.932538 0.763893
vt 0.886954 0.787972
vt 0.880257 0.785333
vt 0.856502 0.759317
vt 0.858175 0.763355
vt 0.880161 0.735658
vt 0.884199 0.737331
vt 0.880161 0.702201
vt 0.884199 0.700528
vt 0.940642 0.792149
vt 0.856502 0.678542
vt 0.858175 0.674504
vt 0.892598 0.810853
vt 0.892811 0.790057
vt 0.907274 0.775655
vt 0.927289 0.776182
vt 0.855321 0.763449
vt 0.880163 0.788291
vt 0.820190 0.763449
vt 0.880163 0.823422
vt 0.855321 0.848264
vt 0.820190 0.848264
s 0
usemtl potdirt
f 1/1/1 2/2/1 4/3/1 3/4/1
f 3/4/2 4/3/2 6/5/2 5/6/2
f 5/6/3 6/5/3 8/7/3 7/8/3
f 7/8/4 8/7/4 10/9/4 9/10/4
f 9/10/5 10/9/5 12/11/5 11/12/5
f 11/12/6 12/11/6 14/13/6 13/14/6
f 4/3/7 2/2/7 42/2/7 41/3/7
f 13/14/8 14/13/8 16/15/8 15/16/8
f 15/16/9 16/15/9 2/17/9 1/18/9
f 1/19/10 3/20/10 5/21/10 7/22/10 9/23/10 11/24/10 13/25/10 15/26/10
f 22/27/11 21/28/11 61/28/11 62/27/11
f 2/17/12 16/15/12 48/15/12 42/17/12
f 8/7/13 6/5/13 43/5/13 44/7/13
f 23/29/14 24/30/14 40/31/14 39/32/14
f 22/33/14 23/29/14 39/32/14 38/34/14
f 30/35/15 31/36/15 52/37/15 49/38/15
f 21/39/14 22/33/14 38/34/14 37/40/14
f 29/41/7 30/35/7 49/38/7 50/42/7
f 31/36/15 30/35/15 38/43/15 39/44/15
f 29/41/12 28/45/12 36/46/12 37/47/12
f 32/48/13 31/36/13 39/44/13 40/49/13
f 27/50/16 25/51/16 33/52/16 35/53/16
f 30/35/7 29/41/7 37/47/7 38/43/7
f 26/54/17 32/48/17 40/49/17 34/55/17
f 25/51/18 26/54/18 34/55/18 33/52/18
f 28/45/19 27/50/19 35/53/19 36/46/19
f 24/30/14 18/56/14 34/57/14 40/31/14
f 18/56/14 17/58/14 33/59/14 34/57/14
f 12/11/18 10/9/18 45/9/18 46/11/18
f 17/58/14 19/60/14 35/61/14 33/59/14
f 28/45/12 29/41/12 50/42/12 56/62/12
f 19/60/14 20/63/14 36/64/14 35/61/14
f 20/63/14 21/39/14 37/40/14 36/64/14
f 16/15/19 14/13/19 47/13/19 48/15/19
f 41/3/10 42/2/10 54/2/10 53/3/10
f 42/17/10 48/15/10 51/15/10 54/17/10
f 44/7/10 43/5/10 55/5/10 56/7/10
f 46/11/10 45/9/10 50/9/10 49/11/10
f 48/15/10 47/13/10 52/13/10 51/15/10
f 47/13/10 46/11/10 49/11/10 52/13/10
f 45/9/10 44/7/10 56/7/10 50/9/10
f 43/5/10 41/3/10 53/3/10 55/5/10
f 31/36/13 32/48/13 51/65/13 52/37/13
f 14/13/16 12/11/16 46/11/16 47/13/16
f 32/48/17 26/54/17 54/66/17 51/65/17
f 26/54/18 25/51/18 53/67/18 54/66/18
f 10/9/17 8/7/17 44/7/17 45/9/17
f 25/51/16 27/50/16 55/68/16 53/67/16
f 6/5/15 4/3/15 41/3/15 43/5/15
f 27/50/19 28/45/19 56/62/19 55/68/19
f 59/69/20 57/70/20 65/70/20 67/69/20
f 20/71/21 19/69/21 59/69/21 60/71/21
f 17/70/22 18/72/22 58/72/22 57/70/22
f 18/72/23 24/73/23 64/73/23 58/72/23
f 23/74/24 22/27/24 62/27/24 63/74/24
f 21/28/25 20/71/25 60/71/25 61/28/25
f 19/69/26 17/70/26 57/70/26 59/69/26
f 24/73/27 23/74/27 63/74/27 64/73/27
f 65/70/14 66/72/14 72/73/14 71/74/14 70/27/14 69/28/14 68/71/14 67/69/14
f 64/73/28 63/74/28 71/74/28 72/73/28
f 62/27/29 61/28/29 69/28/29 70/27/29
f 60/71/30 59/69/30 67/69/30 68/71/30
f 57/70/31 58/72/31 66/72/31 65/70/31
f 58/72/32 64/73/32 72/73/32 66/72/32
f 63/74/33 62/27/33 70/27/33 71/74/33
f 61/28/34 60/71/34 68/71/34 69/28/34
o Cylinder.001
v 0.636396 -0.636396 1.706431
v 0.900000 -0.000000 1.706427
v 0.000000 -0.900000 1.706434
v -0.636396 -0.636396 1.706434
v -0.900000 -0.000000 1.706431
v -0.636396 0.636396 1.706427
v 0.000000 0.900000 1.706423
v 0.636396 0.636396 1.706423
v -0.450018 -0.186439 1.819247
v 0.186399 -0.449992 1.819260
v 0.449976 0.186338 1.819251
v -0.186428 0.449923 1.819256
v -0.318198 -0.768198 1.717370
v 0.318198 0.768198 1.717352
v -0.131809 -0.318215 1.866658
v 0.131774 0.318130 1.866658
v 0.768198 -0.318198 1.717361
v -0.768198 0.318198 1.717361
v -0.318223 0.131742 1.866650
v 0.318188 -0.131827 1.866650
v -0.000018 -0.000043 1.861911
v 0.159099 0.834099 1.714092
v -0.027327 0.384026 1.853691
v -0.477297 -0.702297 1.714108
v -0.290913 -0.252327 1.853686
v -0.159120 0.065850 1.877066
v -0.159099 -0.834099 1.714108
v 0.027295 -0.384104 1.853694
v 0.477297 0.702297 1.714092
v 0.290875 0.252234 1.853688
v 0.159085 -0.065935 1.877066
v 0.834099 -0.159099 1.714098
v 0.065878 0.159044 1.877064
v -0.702297 0.477297 1.714098
v -0.252325 0.290832 1.853686
v 0.384082 0.027255 1.853682
v -0.093224 0.224938 1.880898
v 0.224980 0.093150 1.880898
v -0.834099 0.159099 1.714102
v -0.384120 -0.027348 1.853681
v 0.252293 -0.290910 1.853687
v 0.702297 -0.477297 1.714102
v -0.065913 -0.159129 1.877064
v -0.225017 -0.093239 1.880898
v 0.093190 -0.225019 1.880898
vn 0.1191 -0.2876 0.9503
vn 0.0670 0.2797 0.9578
vn -0.2876 -0.1191 0.9503
vn -0.2039 -0.1851 0.9613
vn -0.1851 0.2039 0.9613
vn 0.2267 0.0939 0.9694
vn 0.2751 0.0133 0.9613
vn 0.2039 0.1851 0.9613
vn 0.2876 0.1191 0.9503
vn -0.1191 0.2876 0.9503
vn 0.0172 0.1104 0.9937
vn -0.0670 -0.2797 0.9578
vn 0.0718 0.0297 0.9970
vn 0.2451 -0.1504 0.9578
vn 0.0902 -0.0659 0.9937
vn -0.2797 0.0670 0.9578
vn -0.1104 0.0172 0.9937
vn -0.0939 0.2267 0.9694
vn -0.1504 -0.2451 0.9578
vn -0.0133 0.2751 0.9613
vn -0.0298 0.0718 0.9970
vn 0.0133 -0.2751 0.9613
vn 0.1504 0.2451 0.9578
vn 0.0659 0.0902 0.9937
vn -0.0718 -0.0297 0.9970
vn -0.0902 0.0659 0.9937
vn 0.0297 -0.0718 0.9970
vn 0.2797 -0.0670 0.9578
vn 0.1104 -0.0172 0.9937
vn -0.2451 0.1504 0.9578
vn -0.0172 -0.1104 0.9937
vn -0.2267 -0.0939 0.9694
vn -0.2751 -0.0133 0.9613
vn 0.0939 -0.2267 0.9694
vn 0.1852 -0.2039 0.9613
vn -0.0659 -0.0902 0.9937
vt 0.391957 0.788026
vt 0.335115 0.732530
vt 0.391957 0.677033
vt 0.201208 0.751488
vt 0.220439 0.770260
vt 0.163497 0.827202
vt 0.143937 0.807580
vt 0.313666 0.598742
vt 0.258174 0.655578
vt 0.202673 0.598742
vt 0.333220 0.618297
vt 0.277140 0.675555
vt 0.143937 0.657478
vt 0.201207 0.713554
vt 0.181232 0.732520
vt 0.124382 0.677033
vt 0.258175 0.770193
vt 0.277141 0.789495
vt 0.258176 0.809469
vt 0.239210 0.789492
vt 0.333220 0.846761
vt 0.313666 0.866317
vt 0.202673 0.866317
vt 0.183118 0.846761
vt 0.124382 0.788026
vt 0.220508 0.732522
vt 0.239335 0.751364
vt 0.372401 0.657479
vt 0.315140 0.713562
vt 0.295910 0.694788
vt 0.352841 0.637857
vt 0.258174 0.694855
vt 0.277014 0.713685
vt 0.258174 0.732524
vt 0.239334 0.713682
vt 0.315141 0.751495
vt 0.372401 0.807580
vt 0.352842 0.827202
vt 0.295911 0.770265
vt 0.295841 0.732527
vt 0.277015 0.751366
vt 0.183119 0.618297
vt 0.239208 0.675553
vt 0.220438 0.694783
vt 0.163497 0.637857
s 0
usemtl potdirt
f 73/75/35 82/76/35 75/77/35
f 95/78/36 88/79/36 86/80/36 94/81/36
f 76/82/37 81/83/37 77/84/37
f 96/85/38 97/86/38 81/83/38 76/82/38
f 106/87/39 107/88/39 84/89/39 78/90/39
f 110/91/40 108/92/40 83/93/40 102/94/40
f 108/92/41 104/95/41 74/96/41 83/93/41
f 102/94/42 83/93/42 80/97/42 101/98/42
f 83/93/43 74/96/43 80/97/43
f 78/90/44 84/89/44 79/99/44
f 109/100/45 105/101/45 88/79/45 95/78/45
f 99/102/46 100/103/46 87/104/46 85/105/46
f 116/106/47 115/107/47 93/108/47 98/109/47
f 113/110/48 114/111/48 89/112/48 92/113/48
f 117/114/49 113/110/49 92/113/49 103/115/49
f 111/116/50 112/117/50 91/118/50 90/119/50
f 112/117/51 116/106/51 98/109/51 91/118/51
f 107/88/52 109/100/52 95/78/52 84/89/52
f 85/105/53 87/104/53 97/86/53 96/85/53
f 84/89/54 95/78/54 94/81/54 79/99/54
f 115/107/55 117/114/55 103/115/55 93/108/55
f 75/77/56 82/76/56 100/103/56 99/102/56
f 88/79/57 102/94/57 101/98/57 86/80/57
f 105/101/58 110/91/58 102/94/58 88/79/58
f 93/108/59 103/115/59 110/91/59 105/101/59
f 91/118/60 98/109/60 109/100/60 107/88/60
f 98/109/61 93/108/61 105/101/61 109/100/61
f 92/113/62 89/112/62 104/95/62 108/92/62
f 103/115/63 92/113/63 108/92/63 110/91/63
f 90/119/64 91/118/64 107/88/64 106/87/64
f 87/104/65 100/103/65 117/114/65 115/107/65
f 81/83/66 97/86/66 116/106/66 112/117/66
f 77/84/67 81/83/67 112/117/67 111/116/67
f 100/103/68 82/76/68 113/110/68 117/114/68
f 82/76/69 73/75/69 114/111/69 113/110/69
f 97/86/70 87/104/70 115/107/70 116/106/70
